<?xml version="1.0" encoding="UTF-8" standalone="no"?>
<!-- Created with Inkscape (http://www.inkscape.org/) -->

<svg
   xmlns:osb="http://www.openswatchbook.org/uri/2009/osb"
   xmlns:dc="http://purl.org/dc/elements/1.1/"
   xmlns:cc="http://creativecommons.org/ns#"
   xmlns:rdf="http://www.w3.org/1999/02/22-rdf-syntax-ns#"
   xmlns:svg="http://www.w3.org/2000/svg"
   xmlns="http://www.w3.org/2000/svg"
   xmlns:sodipodi="http://sodipodi.sourceforge.net/DTD/sodipodi-0.dtd"
   xmlns:inkscape="http://www.inkscape.org/namespaces/inkscape"
   width="210mm"
   height="297mm"
   viewBox="0 0 744.09448819 1052.3622047"
   id="svg2"
   version="1.1"
   inkscape:version="0.91 r13725"
   sodipodi:docname="InitialsSBBorder 2.svg">
  <defs
     id="defs4">
    <linearGradient
       id="linearGradient5632"
       osb:paint="solid">
      <stop
         style="stop-color:#000000;stop-opacity:1;"
         offset="0"
         id="stop5634" />
    </linearGradient>
    <inkscape:perspective
       sodipodi:type="inkscape:persp3d"
       inkscape:vp_x="0 : 526.1811 : 1"
       inkscape:vp_y="0 : 1000 : 0"
       inkscape:vp_z="744.09449 : 526.1811 : 1"
       inkscape:persp3d-origin="372.04724 : 350.7874 : 1"
       id="perspective3361" />
    <inkscape:path-effect
       effect="powerstroke"
       id="path-effect4166"
       is_visible="true"
       offset_points="0,0.5"
       sort_points="true"
       interpolator_type="CubicBezierJohan"
       interpolator_beta="0.2"
       start_linecap_type="zerowidth"
       linejoin_type="round"
       miter_limit="4"
       end_linecap_type="zerowidth"
       cusp_linecap_type="round" />
    <inkscape:path-effect
       effect="spiro"
       id="path-effect4164"
       is_visible="true" />
    <inkscape:path-effect
       effect="powerstroke"
       id="path-effect3360"
       is_visible="true"
       offset_points="0,0.5"
       sort_points="true"
       interpolator_type="CubicBezierJohan"
       interpolator_beta="0.2"
       start_linecap_type="zerowidth"
       linejoin_type="round"
       miter_limit="4"
       end_linecap_type="zerowidth"
       cusp_linecap_type="round" />
    <inkscape:path-effect
       effect="spiro"
       id="path-effect3358"
       is_visible="true" />
    <inkscape:path-effect
       effect="powerstroke"
       id="path-effect3354"
       is_visible="true"
       offset_points="0,0.5"
       sort_points="true"
       interpolator_type="CubicBezierJohan"
       interpolator_beta="0.2"
       start_linecap_type="zerowidth"
       linejoin_type="round"
       miter_limit="4"
       end_linecap_type="zerowidth"
       cusp_linecap_type="round" />
    <inkscape:path-effect
       effect="spiro"
       id="path-effect3352"
       is_visible="true" />
    <inkscape:path-effect
       effect="powerstroke"
       id="path-effect3348"
       is_visible="true"
       offset_points="0,0.5"
       sort_points="true"
       interpolator_type="CubicBezierJohan"
       interpolator_beta="0.2"
       start_linecap_type="zerowidth"
       linejoin_type="round"
       miter_limit="4"
       end_linecap_type="zerowidth"
       cusp_linecap_type="round" />
    <inkscape:path-effect
       effect="spiro"
       id="path-effect3346"
       is_visible="true" />
    <inkscape:path-effect
       effect="powerstroke"
       id="path-effect3342"
       is_visible="true"
       offset_points="0,0.5"
       sort_points="true"
       interpolator_type="CubicBezierJohan"
       interpolator_beta="0.2"
       start_linecap_type="zerowidth"
       linejoin_type="round"
       miter_limit="4"
       end_linecap_type="zerowidth"
       cusp_linecap_type="round" />
    <inkscape:path-effect
       effect="spiro"
       id="path-effect3340"
       is_visible="true" />
  </defs>
  <sodipodi:namedview
     id="base"
     pagecolor="#ffffff"
     bordercolor="#666666"
     borderopacity="1.0"
     inkscape:pageopacity="0.0"
     inkscape:pageshadow="2"
     inkscape:zoom="0.52560137"
     inkscape:cx="273.85651"
     inkscape:cy="484.62053"
     inkscape:document-units="px"
     inkscape:current-layer="layer1"
     showgrid="false"
     inkscape:window-width="1317"
     inkscape:window-height="723"
     inkscape:window-x="1440"
     inkscape:window-y="57"
     inkscape:window-maximized="1" />
  <metadata
     id="metadata7">
    <rdf:RDF>
      <cc:Work
         rdf:about="">
        <dc:format>image/svg+xml</dc:format>
        <dc:type
           rdf:resource="http://purl.org/dc/dcmitype/StillImage" />
        <dc:title />
      </cc:Work>
    </rdf:RDF>
  </metadata>
  <g
     inkscape:label="Layer 1"
     inkscape:groupmode="layer"
     id="layer1">
    <flowRoot
       xml:space="preserve"
       id="flowRoot4168"
       style="font-style:normal;font-weight:normal;font-size:40px;line-height:125%;font-family:sans-serif;letter-spacing:0px;word-spacing:0px;fill:#000000;fill-opacity:1;stroke:none;stroke-width:1px;stroke-linecap:butt;stroke-linejoin:miter;stroke-opacity:1"><flowRegion
         id="flowRegion4170"><rect
           id="rect4172"
           width="264.65997"
           height="167.68532"
           x="214.15234"
           y="155.34674" /></flowRegion><flowPara
         id="flowPara4174" /></flowRoot>    <flowRoot
       xml:space="preserve"
       id="flowRoot4182"
       style="fill:black;stroke:none;stroke-opacity:1;stroke-width:1px;stroke-linejoin:miter;stroke-linecap:butt;fill-opacity:1;font-family:sans-serif;font-style:normal;font-weight:normal;font-size:40px;line-height:125%;letter-spacing:0px;word-spacing:0px"><flowRegion
         id="flowRegion4184"><rect
           id="rect4186"
           width="309.10669"
           height="111.11678"
           x="369.71582"
           y="242.21986" /></flowRegion><flowPara
         id="flowPara4188" /></flowRoot>    <flowRoot
       xml:space="preserve"
       id="flowRoot4190"
       style="fill:black;stroke:none;stroke-opacity:1;stroke-width:1px;stroke-linejoin:miter;stroke-linecap:butt;fill-opacity:1;font-family:sans-serif;font-style:normal;font-weight:normal;font-size:40px;line-height:125%;letter-spacing:0px;word-spacing:0px"><flowRegion
         id="flowRegion4192"><rect
           id="rect4194"
           width="440.42651"
           height="149.50258"
           x="349.51279"
           y="262.42291" /></flowRegion><flowPara
         id="flowPara4196" /></flowRoot>    <g
       style="font-style:normal;font-weight:normal;font-size:40px;line-height:125%;font-family:sans-serif;letter-spacing:0px;word-spacing:0px;fill:#000000;fill-opacity:1;stroke:none;stroke-width:1px;stroke-linecap:butt;stroke-linejoin:miter;stroke-opacity:1"
       id="text4202"
       transform="matrix(11.046744,0,0,10.656226,-1997.9815,-1456.5935)">
      <text
         xml:space="preserve"
         style="font-style:normal;font-variant:normal;font-weight:normal;font-stretch:normal;font-size:40px;line-height:125%;font-family:Didot;-inkscape-font-specification:'Didot, Normal';text-align:start;letter-spacing:0px;word-spacing:0px;writing-mode:lr-tb;text-anchor:start;fill:#000000;fill-opacity:1;stroke:none;stroke-width:1px;stroke-linecap:butt;stroke-linejoin:miter;stroke-opacity:1"
         x="198.57143"
         y="195.21935"
         id="text4213"
         sodipodi:linespacing="125%"><tspan
           sodipodi:role="line"
           id="tspan4215"
           x="198.57143"
           y="195.21935">S</tspan></text>
    </g>
    <path
       style="font-style:normal;font-weight:normal;font-size:200.48323059px;line-height:125%;font-family:sans-serif;letter-spacing:0px;word-spacing:0px;fill:#000000;fill-opacity:1;stroke:none;stroke-width:1px;stroke-linecap:butt;stroke-linejoin:miter;stroke-opacity:1"
       d="m 404.21458,308.87422 c -4.69372,0 -9.55256,0.14907 -14.58152,0.45086 l -15.59015,0 -16.0922,0.90641 -15.08817,0 -88.00966,0 0,6.33554 55.82532,0 0,309.63276 -55.82532,0 0,6.3402 88.00966,0 17.09621,0 c 5.36424,0.30176 10.5612,0.60461 15.59017,0.90642 5.02897,0.30176 9.7257,0.45084 14.08414,0.45084 4.69372,0.30181 9.38579,0.45088 14.07951,0.45088 23.13327,0 43.41622,-2.25958 60.85001,-6.78641 17.43379,-4.82859 31.84816,-11.31855 43.24717,-19.46679 11.399,-8.14829 19.94944,-17.8063 25.64894,-28.97246 5.69949,-11.46792 8.54811,-23.99123 8.54811,-37.57167 0,-12.97685 -3.18209,-24.44721 -9.55212,-34.40622 -6.37005,-9.95897 -14.75372,-18.25659 -25.14693,-24.89592 -10.05794,-6.94111 -21.45701,-12.21973 -34.19708,-15.84118 -12.40479,-3.92327 -24.64222,-6.34123 -36.71172,-7.24661 l 0,-0.90174 c 11.73426,-1.20716 22.96654,-3.77425 33.69503,-7.69749 10.72847,-3.92324 20.11729,-9.05275 28.16363,-15.39027 8.38165,-6.33755 14.9172,-13.73134 19.61091,-22.1814 5.02899,-8.45004 7.54409,-17.65616 7.54409,-27.61513 0,-7.24293 -1.67674,-15.23772 -5.0294,-23.98955 -3.35266,-9.05361 -9.55472,-17.35587 -18.60688,-24.90059 -9.05214,-7.84646 -21.4563,-14.33178 -37.21375,-19.46214 -15.75746,-5.43218 -35.87366,-8.14834 -60.348,-8.14834 z m -9.0501,6.33553 c 8.71686,0 17.43405,0.75474 26.15094,2.2637 9.05216,1.50893 17.09772,4.67703 24.13827,9.50562 7.37583,4.82859 13.23977,12.07328 17.59821,21.73049 4.69372,9.35542 7.04208,21.87871 7.04208,37.57168 0,13.88222 -1.50999,25.34792 -4.52737,34.40158 -3.01741,9.05361 -7.37599,16.29831 -13.07549,21.7305 -5.36422,5.13035 -11.89981,8.75039 -19.61091,10.86291 -7.71108,2.1125 -16.26153,3.17009 -25.64892,3.17009 l -46.26391,0 0,-139.87929 c 4.35847,-0.60359 9.55545,-0.9064 15.59022,-0.9064 6.37002,-0.3018 12.57209,-0.45088 18.60688,-0.45088 z m -34.1971,147.5721 55.31867,0 c 22.46274,0 39.39222,6.94185 50.79122,20.8241 11.39902,13.88221 17.0962,32.89545 17.0962,57.03848 0,16.90008 -1.67207,30.9329 -5.02473,42.09902 -3.35266,11.16614 -8.72099,20.22318 -16.09684,27.16429 -7.04053,6.63931 -16.25796,11.31693 -27.65698,14.03302 -11.06374,2.71607 -24.47301,4.07184 -40.23044,4.07184 -9.05218,0 -16.09262,-0.14907 -21.12157,-0.45088 -4.69374,-0.60357 -9.05232,-1.06015 -13.07553,-1.36193 l 0,-163.41794 z"
       id="text4206"
       inkscape:connector-curvature="0" />
    <rect
       style="fill:none;stroke:none;stroke-width:5;stroke-miterlimit:4;stroke-dasharray:none;stroke-opacity:1"
       id="rect3359"
       width="662.60559"
       height="599.97119"
       x="70.162659"
       y="170.4973" />
    <rect
       style="opacity:0.64299999;fill:none;fill-opacity:1;stroke:#000000;stroke-width:11.5379076;stroke-linecap:butt;stroke-linejoin:miter;stroke-miterlimit:4;stroke-dasharray:none;stroke-dashoffset:0;stroke-opacity:1"
       id="rect4183"
       width="438.44049"
       height="438.44049"
       x="384.9628"
       y="-159.20532"
       transform="matrix(0.68470703,0.72881842,-0.72881842,0.68470703,0,0)"
       inkscape:transform-center-y="17.561445"
       inkscape:transform-center-x="-1.9457632e-05" />
    <rect
       style="opacity:0.64299999;fill:none;fill-opacity:1;stroke:#000000;stroke-width:12.03034496;stroke-linecap:butt;stroke-linejoin:miter;stroke-miterlimit:4;stroke-dasharray:none;stroke-dashoffset:0;stroke-opacity:1"
       id="rect5684"
       width="481.12704"
       height="481.30042"
       x="363.16119"
       y="-178.61552"
       transform="matrix(0.68940731,0.72437391,-0.72879869,0.68472802,0,0)"
       inkscape:transform-center-y="-4.5628889"
       inkscape:transform-center-x="-0.030290061" />
  </g>
</svg>
